<svg xmlns="http://www.w3.org/2000/svg" viewBox="0 0 100 100"><defs><style>.cls-1{fill:none;stroke:#54565a;stroke-miterlimit:10;stroke-width:4.25px;}</style></defs><g id="Icon"><path class="cls-1" d="M37.29,45.24a13.87,13.87,0,0,0-8.43,12.39c-.2,6,4.21,12.72,12.85,13.14"/><path class="cls-1" d="M37.29,36.45C27.07,39.28,20.65,48,20.59,57.63c-.07,11.05,8.16,20.92,20.48,21,9.75.1,18.69-8.23,18.51-18-.13-6.63-3.35-12.19-8.61-15"/><path class="cls-1" d="M37.29,27.93c-15.11,3.09-24.95,15.75-25,29.7,0,16.16,12.4,29.27,28.76,29.34C55.13,87,67.9,75.42,67.84,60.61A24.77,24.77,0,0,0,51,36.82"/><path class="cls-1" d="M41.07,95.25A35,35,0,0,0,76.13,60.31,32.9,32.9,0,0,0,51,28.21"/><path class="cls-1" d="M37.29,20.36,21.14,36.51a30,30,0,0,0-8.83,21.12,1.55,1.55,0,0,0,0,.22c.08,16.06,12.47,29,28.75,29.13"/><path class="cls-1" d="M3.78,87v8.28H41.07a34.12,34.12,0,0,0,7.76-.88A35,35,0,0,0,66,84.93L86.06,64.84A34.44,34.44,0,0,0,96.22,40.21c-.12-18-14.26-33.42-34-33a33.34,33.34,0,0,0-3.51.39"/><line class="cls-1" x1="41.07" y1="86.97" x2="3.78" y2="86.97"/><path class="cls-1" d="M71.07,8.07V-4.74H57.38L37.29,15.35V57.12a1.34,1.34,0,0,0,1.34,1.34h11A1.34,1.34,0,0,0,51,57.12V15.35L62,4.3"/></g></svg>