<svg xmlns="http://www.w3.org/2000/svg" viewBox="0 0 100 100"><defs><style>.cls-1{fill:none;stroke:#54565a;stroke-miterlimit:10;stroke-width:4.25px;}</style></defs><g id="Icon"><path class="cls-1" d="M50,0C32.64,0,18.56,7,18.56,15.72V22c0,8.68,14.08,15.72,31.44,15.72s31.44-7,31.44-15.72V15.72C81.44,7,67.36,0,50,0Z"/><path class="cls-1" d="M23.28,36.08V46a8.2,8.2,0,0,0,2.35,5.49V87.82C25.63,94.55,36.54,100,50,100s24.37-5.45,24.37-12.18V51.44A8.18,8.18,0,0,0,76.72,46V36.08"/><ellipse class="cls-1" cx="50" cy="15.72" rx="21.09" ry="8.07"/><path class="cls-1" d="M53.77,59.18c1.3-.09,2.56-.23,3.79-.41"/><path class="cls-1" d="M25.64,51.45c4.19,4.64,13.52,7.86,24.36,7.86"/></g></svg>