<svg xmlns="http://www.w3.org/2000/svg" viewBox="0 0 100 100"><defs><style>.cls-1{fill:none;stroke:#54565a;stroke-linecap:round;stroke-linejoin:round;stroke-width:4.25px;}</style></defs><g id="Icon"><polyline class="cls-1" points="50.55 100 0 100 0 89.04 19.8 89.04 19.8 60.41 0 60.41 0 49.45 50.55 49.45 50.55 60.41 30.76 60.41 30.76 89.04 46.46 89.04"/><polygon class="cls-1" points="80.2 30.75 80.2 39.59 100 39.59 100 50.55 50.55 100 0 100 0 89.04 19.8 89.04 19.8 60.41 0 60.41 0 49.45 49.45 0 100 0 100 10.96 80.2 30.75"/><line class="cls-1" x1="50.55" y1="60.41" x2="80.21" y2="30.76"/><line class="cls-1" y1="89.04" x2="12.28" y2="76.76"/></g></svg>