<svg xmlns="http://www.w3.org/2000/svg" viewBox="0 0 100 100"><defs><style>.cls-1{fill:none;stroke:#54565a;stroke-miterlimit:10;stroke-width:4.25px;}</style></defs><g id="Icon"><ellipse class="cls-1" cx="50" cy="24.07" rx="48.15" ry="24.07"/><path class="cls-1" d="M90.74,62.93c4.7,3.72,7.41,8.18,7.41,13C98.15,89.43,77,100,50,100S1.85,89.43,1.85,75.93c0-4.82,2.71-9.28,7.41-13"/><polyline class="cls-1" points="9.26 75.93 9.26 65.35 9.26 38.35"/><polyline class="cls-1" points="90.74 75.93 90.74 65.35 90.74 38.35"/><path class="cls-1" d="M90.74,75.93c0,7.86-17.42,16.66-40.74,16.66S9.26,83.79,9.26,75.93"/><path class="cls-1" d="M90.74,68.52c0,7.87-17.42,16.67-40.74,16.67S9.26,76.39,9.26,68.52"/><path class="cls-1" d="M90.74,61.11C90.74,69,73.32,77.78,50,77.78S9.26,69,9.26,61.11"/><path class="cls-1" d="M90.74,53.7c0,7.87-17.42,16.67-40.74,16.67S9.26,61.57,9.26,53.7"/><path class="cls-1" d="M90.74,46.3C90.74,54.16,73.32,63,50,63S9.26,54.16,9.26,46.3"/><path class="cls-1" d="M90.74,38.89c0,7.87-17.42,16.67-40.74,16.67S9.26,46.76,9.26,38.89"/><ellipse class="cls-1" cx="50" cy="24.07" rx="12.96" ry="5.56"/></g></svg>