<svg xmlns="http://www.w3.org/2000/svg" viewBox="0 0 100 100"><defs><style>.cls-1{fill:none;stroke:#54565a;stroke-miterlimit:10;stroke-width:4.25px;}</style></defs><g id="Icon"><path class="cls-1" d="M45.46,96.27C41.75,98.55,36.11,100,29.78,100,18.61,100,9.56,95.47,9.56,89.89V10.11C9.56,4.53,18.61,0,29.78,0,36.2,0,41.92,1.5,45.63,3.83"/><path class="cls-1" d="M90.44,10.11V89.89c0,5.58-9,10.11-20.22,10.11S50,95.47,50,89.89V10.11C50,4.53,59.05,0,70.22,0S90.44,4.53,90.44,10.11Z"/><path class="cls-1" d="M43.61,17.48a33.27,33.27,0,0,1-13.83,2.74c-11.17,0-20.22-4.53-20.22-10.11S18.61,0,29.78,0c6.32,0,12,1.45,15.67,3.72"/><ellipse class="cls-1" cx="29.78" cy="10.11" rx="11.19" ry="3.61"/><ellipse class="cls-1" cx="70.22" cy="10.11" rx="20.22" ry="10.11"/></g></svg>