<svg xmlns="http://www.w3.org/2000/svg" viewBox="0 0 100 100"><defs><style>.cls-1{fill:none;stroke:#54565a;stroke-miterlimit:10;stroke-width:4.25px;}</style></defs><g id="Icon"><path class="cls-1" d="M88.93,0V28.28c0,4.78,3.58,6,3.58,10.83V50.75H62.05V39.11c0-4.78,3.58-6,3.58-10.83V0"/><polygon class="cls-1" points="71.01 50.75 83.56 50.75 83.56 82.49 80.73 82.49 80.73 93.4 77.28 100 73.83 93.4 73.83 82.49 71.01 82.49 71.01 50.75"/><path class="cls-1" d="M34.37,0V28.28c0,4.78,3.58,6,3.58,10.83V50.75H7.49V39.11c0-4.78,3.58-6,3.58-10.83V0"/><polygon class="cls-1" points="16.45 50.75 28.99 50.75 28.99 82.49 28.99 93.4 28.99 93.4 22.72 100 16.45 93.4 16.45 93.4 16.45 82.49 16.45 50.75"/></g></svg>