<svg xmlns="http://www.w3.org/2000/svg" viewBox="0 0 100 100"><defs><style>.cls-1{fill:none;stroke:#54565a;stroke-miterlimit:10;stroke-width:4.25px;}</style></defs><g id="Icon"><path class="cls-1" d="M87.15,62.15A29.18,29.18,0,0,0,66.83,38.77l-.23-.08a29.16,29.16,0,0,0-27.35,50l.27.23a29.05,29.05,0,0,0,14.85,6.63"/><path class="cls-1" d="M49.65,87.45l-6-6h0A20.83,20.83,0,1,1,73.06,51.94h0l6,6"/><path class="cls-1" d="M79.11,58A20.83,20.83,0,0,0,49.65,87.45c.41.41.85.81,1.3,1.19"/><path class="cls-1" d="M81.51,60.85A20.63,20.63,0,0,0,79.11,58"/><path class="cls-1" d="M66.84,38.76S33.68,28.3,18.75,0"/><path class="cls-1" d="M39.51,88.94S8.33,56.05,0,39.58"/><circle class="cls-1" cx="68.75" cy="95.83" r="4.17"/><circle class="cls-1" cx="70.83" cy="83.33" r="4.17"/><circle class="cls-1" cx="83.33" cy="81.25" r="4.17"/><circle class="cls-1" cx="83.33" cy="93.75" r="4.17"/><circle class="cls-1" cx="93.75" cy="85.42" r="4.17"/><circle class="cls-1" cx="95.83" cy="75" r="4.17"/><path class="cls-1" d="M65.32,93.51C60.59,90.05,52.39,83,50,74.31"/><path class="cls-1" d="M67.56,80.76A54.55,54.55,0,0,1,55,64.41"/><path class="cls-1" d="M79.57,79.46c-4.71-2.51-12.5-7.62-15.19-15"/><path class="cls-1" d="M91.82,74.39c-4.69-1.16-12.84-4.47-21-14"/><path class="cls-1" d="M79.8,91.66a41.22,41.22,0,0,1-3.41-3"/></g></svg>