<?xml version="1.0" encoding="utf-8"?>
<!-- Generator: Adobe Illustrator 15.0.0, SVG Export Plug-In . SVG Version: 6.00 Build 0)  -->
<!DOCTYPE svg PUBLIC "-//W3C//DTD SVG 1.1//EN" "http://www.w3.org/Graphics/SVG/1.1/DTD/svg11.dtd">
<svg version="1.1" id="Layer_1" xmlns="http://www.w3.org/2000/svg" xmlns:xlink="http://www.w3.org/1999/xlink" x="0px" y="0px"
	 width="45px" height="45px" viewBox="0 0 45 45" enable-background="new 0 0 45 45" xml:space="preserve">
<path fill="none" stroke="#DCDDDC" d="M0,23"/>
<path fill="#EE3124" d="M1.5,22.5c0,11.579,9.421,21,21,21s21-9.421,21-21s-9.421-21-21-21S1.5,10.921,1.5,22.5 M45,22.5
	C45,34.906,34.906,45,22.5,45S0,34.906,0,22.5S10.094,0,22.5,0S45,10.094,45,22.5"/>
<polygon fill="#EE3124" points="10.753,22.003 12.736,23.985 20.598,16.139 20.598,33.253 23.409,33.253 23.409,16.139 31.256,24 
	33.254,22.003 22.003,10.753 "/>
<path fill="none" stroke="#DCDDDC" d="M45,23"/>
</svg>
