<?xml version="1.0" encoding="utf-8"?>
<!-- Generator: Adobe Illustrator 15.0.0, SVG Export Plug-In . SVG Version: 6.00 Build 0)  -->
<!DOCTYPE svg PUBLIC "-//W3C//DTD SVG 1.1//EN" "http://www.w3.org/Graphics/SVG/1.1/DTD/svg11.dtd">
<svg version="1.1" id="Layer_1" xmlns="http://www.w3.org/2000/svg" xmlns:xlink="http://www.w3.org/1999/xlink" x="0px" y="0px"
	 width="37.593px" height="46.129px" viewBox="0 0 37.593 46.129" enable-background="new 0 0 37.593 46.129" xml:space="preserve">
<path fill="none" stroke="#AAAAAD" stroke-width="1.417" stroke-miterlimit="10" d="M29.401,20.197l-2.947,2.891 M16.183,29.529
	l10.246-10.046 M25.224,18.977v1.726v0.709h0.709h3.964h0.29l0.207-0.203c1.153-1.13,2.307-2.261,3.46-3.392h3.03v5.131
	c0,0.262-0.105,0.51-0.298,0.699l-21.898,21.47c-0.2,0.198-0.461,0.305-0.739,0.305H1.738c-0.567,0-1.029-0.446-1.029-0.996V23.183
	c0-0.264,0.105-0.513,0.298-0.702L22.913,1.006c0.195-0.192,0.456-0.298,0.731-0.298h12.21c0.568,0,1.03,0.447,1.03,0.997v5.542
	c-3.814,3.741-7.631,7.482-11.446,11.223l-0.214,0.208V18.977z M13.95,45.42H1.74c-0.568,0-1.03-0.447-1.03-0.997V23.18
	c0-0.549,0.462-0.996,1.03-0.996h12.21c0.567,0,1.029,0.447,1.029,0.996v5.133h-2.61v-2.887v-0.709H11.66H4.029H3.32v0.709v16.753
	v0.708h0.709h7.631h0.709v-0.708v-2.885h3.319"/>
</svg>
