<?xml version="1.0" encoding="utf-8"?>
<!-- Generator: Adobe Illustrator 15.0.0, SVG Export Plug-In . SVG Version: 6.00 Build 0)  -->
<!DOCTYPE svg PUBLIC "-//W3C//DTD SVG 1.1//EN" "http://www.w3.org/Graphics/SVG/1.1/DTD/svg11.dtd">
<svg version="1.1" id="Layer_1" xmlns="http://www.w3.org/2000/svg" xmlns:xlink="http://www.w3.org/1999/xlink" x="0px" y="0px"
	 width="43.953px" height="43.958px" viewBox="0 0 43.953 43.958" enable-background="new 0 0 43.953 43.958" xml:space="preserve">
<line fill="none" stroke="#AAAAAD" stroke-width="1.417" stroke-miterlimit="10" x1="0.501" y1="39.641" x2="5.896" y2="34.245"/>
<line fill="none" stroke="#AAAAAD" stroke-width="1.417" stroke-miterlimit="10" x1="22.72" y1="27.057" x2="35.755" y2="14.022"/>
<path fill="none" stroke="#AAAAAD" stroke-width="1.417" stroke-miterlimit="10" d="M0.709,43.249v-3.4h7.992h0.707v-0.707V26.557
	v-0.709H8.701H0.709v-3.816C7.814,14.923,14.921,7.817,22.026,0.708h21.218v3.816l-8.493,8.494l-0.208,0.208v0.293v3.882v0.709
	h0.709h7.992v3.814c-7.107,7.108-14.214,14.216-21.319,21.323H0.709"/>
<polyline fill="none" stroke="#AAAAAD" stroke-width="1.417" stroke-miterlimit="10" points="0.709,43.249 0.709,39.85 8.701,39.85 
	9.408,39.85 9.408,39.141 9.408,26.557 9.408,25.848 8.701,25.848 0.709,25.848 0.709,22.447 21.51,22.447 21.51,25.848 
	13.518,25.848 12.81,25.848 12.81,26.557 12.81,39.141 12.81,39.85 13.518,39.85 20.421,39.85 "/>
<line fill="none" stroke="#AAAAAD" stroke-width="1.417" stroke-miterlimit="10" x1="22.219" y1="43.249" x2="0.709" y2="43.249"/>
</svg>
