<svg xmlns="http://www.w3.org/2000/svg" viewBox="0 0 259.11 60"><defs><style>.cls-1{fill:#e1251b;}.cls-2{fill:#898a8d;}</style></defs><g id="Layer_2" data-name="Layer 2"><g id="Layer_1-2" data-name="Layer 1"><polygon class="cls-1" points="0.03 49.47 0.03 59.97 36 24 36 13.5 0.03 49.47"/><polygon class="cls-2" points="0 0 0.03 38.97 7.53 31.47 7.53 7.5 52.47 7.5 52.47 52.5 28.5 52.5 36 45 36 34.5 10.5 60 59.97 60 60 60 60 0 0 0"/><path class="cls-2" d="M114.38,29c0,2.08,0,3.72-.12,4.9q-.41,4.48-2.09,6.2-2,2.12-6.31,2.11H99.37V17.81h6.49a15,15,0,0,1,4.61.58A4.54,4.54,0,0,1,113,20.53a9.16,9.16,0,0,1,1.1,3.43,41.62,41.62,0,0,1,.24,5m7.49.38a43.17,43.17,0,0,0-.7-8.65,14.61,14.61,0,0,0-2.51-5.79,10.09,10.09,0,0,0-5.13-3.54,27.8,27.8,0,0,0-8.39-1.07H91.88V49.69h13.26a25,25,0,0,0,8.57-1.25,10.06,10.06,0,0,0,5.12-4,17,17,0,0,0,2.4-6.26,50,50,0,0,0,.64-8.83"/><polygon class="cls-2" points="174.4 49.69 174.4 17.81 175.31 17.81 183.49 47.95 191.51 47.95 199.69 17.81 200.6 17.81 200.6 49.69 208.13 49.69 208.13 10.31 194.47 10.31 187.5 39.03 180.53 10.31 166.88 10.31 166.88 49.69 174.4 49.69"/><path class="cls-2" d="M251.25,38A3.8,3.8,0,0,1,250,41.29a6.61,6.61,0,0,1-3.85.9h-8V33.91h8q5.1,0,5.1,4.09m-.75-16.16q0,4-4.52,4h-7.86v-8h7.8q4.58,0,4.58,4M257.38,26a11.79,11.79,0,0,0,1-5.24c0-3.67-1-6.32-3.07-8s-5.11-2.46-9.2-2.46H230.62V49.69h15.7q6.08,0,9.44-2.78t3.35-8.51a11.32,11.32,0,0,0-1.24-5.79A7.9,7.9,0,0,0,254,29.42,9.08,9.08,0,0,0,257.38,26"/><path class="cls-2" d="M76.88,49.69h7.5V21.56h-7.5Zm7.5-39.38h-7.5v7.5h7.5Z"/><path class="cls-2" d="M151.88,29c0,2.08,0,3.72-.12,4.9q-.4,4.48-2.08,6.2c-1.31,1.41-3.42,2.11-6.31,2.11h-6.49V17.81h6.49a14.94,14.94,0,0,1,4.6.58,4.53,4.53,0,0,1,2.58,2.14,9.34,9.34,0,0,1,1.1,3.43,44.18,44.18,0,0,1,.23,5m7.49.38a44,44,0,0,0-.69-8.65,14.48,14.48,0,0,0-2.52-5.79A10.06,10.06,0,0,0,151,11.38a27.82,27.82,0,0,0-8.4-1.07H129.38V49.69h13.26a25,25,0,0,0,8.57-1.25,10,10,0,0,0,5.12-4,17.21,17.21,0,0,0,2.41-6.26,51.14,51.14,0,0,0,.63-8.83"/><path class="cls-2" d="M215.62,49.69h7.5V21.56h-7.5Zm7.5-39.38h-7.5v7.5h7.5Z"/></g></g></svg>
