<svg xmlns="http://www.w3.org/2000/svg" viewBox="0 0 250.09 59.76"><defs><style>.cls-1{fill:#e1251b;}</style></defs><g id="Layer_2" data-name="Layer 2"><g id="Layer_1-2" data-name="Layer 1"><path class="cls-1" d="M7.05,5.37H.72A.72.72,0,0,1,0,4.65V.72A.72.72,0,0,1,.72,0H21.09a.72.72,0,0,1,.72.72,4.66,4.66,0,0,1-4.65,4.65h-2.4a.72.72,0,0,0-.72.72v18.8a.72.72,0,0,1-.72.72h-.71a4.86,4.86,0,0,1-4.84-4.84V6.09a.72.72,0,0,0-.72-.72"/><path class="cls-1" d="M21.71,7.16h4.75a.73.73,0,0,1,.72.73V18c0,1.72.68,2.43,2,2.43,2.65,0,3.91-2.32,3.91-5.08V7.89a.73.73,0,0,1,.72-.73h4.75a.73.73,0,0,1,.72.73v17a.72.72,0,0,1-.72.72H34a.72.72,0,0,1-.72-.72V24a10.07,10.07,0,0,1,.07-1.15h-.07A6.41,6.41,0,0,1,27.54,26C23.89,26,21,24.32,21,19.13V7.89a.73.73,0,0,1,.72-.73"/><path class="cls-1" d="M42.77,7.16h4.5a.73.73,0,0,1,.72.73v2.39a10.07,10.07,0,0,1-.07,1.15H48a6.41,6.41,0,0,1,5.87-4.59h0a.71.71,0,0,1,.7.72v4.63a.72.72,0,0,1-.77.72l-.48,0a4.67,4.67,0,0,0-4.77,3.23,8.49,8.49,0,0,0-.32,2.5v6.27a.72.72,0,0,1-.72.72H42.77a.72.72,0,0,1-.72-.72v-17a.73.73,0,0,1,.72-.73"/><path class="cls-1" d="M56.38,0h4.75a.72.72,0,0,1,.72.72V12.53a.72.72,0,0,0,.72.72h.63a.72.72,0,0,0,.62-.35l3.23-5.39a.73.73,0,0,1,.62-.35h5a.72.72,0,0,1,.6,1.12l-4.69,7.26v.08l5.49,8.89a.72.72,0,0,1-.62,1.1H68.12a.74.74,0,0,1-.64-.38L64,18.82a.73.73,0,0,0-.63-.38h-.79a.73.73,0,0,0-.72.73v5.72a.72.72,0,0,1-.72.72H56.38a.73.73,0,0,1-.73-.72V.72A.73.73,0,0,1,56.38,0"/><path class="cls-1" d="M76,7.16h4.75a.73.73,0,0,1,.72.73v17a.72.72,0,0,1-.72.72H76a.72.72,0,0,1-.72-.72v-17A.73.73,0,0,1,76,7.16M76.11,0h4.61a.72.72,0,0,1,.72.72V4.11a.73.73,0,0,1-.72.73H76.11a.73.73,0,0,1-.72-.73V.72A.72.72,0,0,1,76.11,0"/><path class="cls-1" d="M85.1,19.83a.72.72,0,0,1,1-.21A7.41,7.41,0,0,0,90.21,21c.94,0,1.83-.25,1.83-.86,0-1.61-8.63-1.79-8.63-7.8,0-3.48,3.33-5.63,7.59-5.63a10.4,10.4,0,0,1,6,1.73.74.74,0,0,1,.24.91l-1.5,3.13a.73.73,0,0,1-1,.31A7.29,7.29,0,0,0,91,11.75c-.93,0-1.82.25-1.82.89,0,1.4,8.63,1.61,8.63,7.56,0,3.15-2.8,5.84-7.56,5.84a11.39,11.39,0,0,1-6.88-2.3.73.73,0,0,1-.16-1Z"/><path class="cls-1" d="M100.1,0h4.76a.72.72,0,0,1,.72.72V8.09c0,.94-.07,1.58-.07,1.58h.07a6.33,6.33,0,0,1,5.62-2.94c3.73,0,6.63,1.72,6.63,6.92V24.89a.73.73,0,0,1-.72.72h-4.76a.72.72,0,0,1-.72-.72V14.79c0-1.72-.68-2.43-2-2.43a3.72,3.72,0,0,0-3.69,2.72,7.1,7.1,0,0,0-.32,2.36v7.45a.72.72,0,0,1-.72.72H100.1a.73.73,0,0,1-.72-.72V.72A.72.72,0,0,1,100.1,0"/><path class="cls-1" d="M233.31,56.23a9.88,9.88,0,0,0,7.78,3.53c5.15,0,9-3.67,9-8.57,0-4.57-3.49-8.28-8.86-8.28a7.29,7.29,0,0,0-3.27.79h-.08a6.85,6.85,0,0,0,.18-1.33l.62-5.36h9.72v-3.1H235.58l-1.26,12.6,2.05.76A8.15,8.15,0,0,1,240.66,46c3.27,0,5.79,2.16,5.79,5.22s-2.59,5.14-5.58,5.14a7.29,7.29,0,0,1-5.58-2.73Zm-11.7.25c-3.24,0-5.72-3.71-5.72-7,0-1.83,2.3-3.56,5.18-3.56a5,5,0,0,1,5.22,5.36c0,3-1.76,5.22-4.68,5.22m0,3.28c4.75,0,8.17-3.49,8.17-8.5,0-4.71-3.2-8.39-8-8.39a7.31,7.31,0,0,0-5.61,2.42h-.08c.54-4.22,3-8.54,7.64-8.54a8.82,8.82,0,0,1,3.63.83l1.15-3.06a11.28,11.28,0,0,0-4.93-1c-7.88,0-11.45,7.77-11.45,14.29,0,7.24,4.07,12,9.51,12m-30.6-3.46a11.66,11.66,0,0,0,8.24,3.46c5.22,0,8.64-3.82,8.64-8.17,0-4.94-4.1-7.1-7.45-7.46l6.91-8V33.91H192.2V37h8.6A16.58,16.58,0,0,0,203,36.9V37a19.4,19.4,0,0,0-1.58,1.66l-5.54,6.51.82,1.91h1.77c3.13,0,5.9,1.55,5.9,4.68,0,2.74-2.34,4.64-5.18,4.64A9.08,9.08,0,0,1,193,53.6Zm-40.86,3h3.49V51a10.08,10.08,0,0,1,.22-2.38c.68-2.59,2.55-4.78,5.22-4.78s3.17,2.19,3.17,4.57V59.33h3.49V51a10.87,10.87,0,0,1,.25-2.52c.65-2.48,2.56-4.64,5.11-4.64,2.74,0,3.24,2,3.24,4.57V59.33h3.49V47.66c0-4.64-1.9-7-6-7a7.33,7.33,0,0,0-6.48,4.14h-.07c-.61-2.74-2.41-4.14-5.47-4.14a7.13,7.13,0,0,0-6.27,4.17h-.07a13.07,13.07,0,0,0,.07-1.33V41.11h-3.38Zm-21.78-6.56c0,4.83,2.12,7,6.23,7a7.34,7.34,0,0,0,6.69-4.18h.08a10.82,10.82,0,0,0-.08,1.33v2.42h3.39V41.11h-3.49v8.53c0,3.6-2.2,6.88-5.91,6.88-2.91,0-3.42-2-3.42-4.54V41.11h-3.49Zm-8.71,6.56h3.49V41.11H119.7Zm0-21.86h3.53V33.91h-3.53ZM98,59.33h3.49V50.79a8.78,8.78,0,0,1,.29-2.44,6,6,0,0,1,5.76-4.47c2.92,0,3.46,2,3.46,4.57V59.33h3.49V47.66c0-4.64-2-7-6.27-7a7.4,7.4,0,0,0-6.83,4.17h-.08a11.46,11.46,0,0,0,.08-1.33V41.11H98Zm-9,0h3.49V41.11H89Zm0-21.86h3.53V33.91H89ZM56.12,59.33h3.49V51a10.08,10.08,0,0,1,.22-2.38c.68-2.59,2.56-4.78,5.22-4.78,2.81,0,3.17,2.19,3.17,4.57V59.33h3.49V51A10.87,10.87,0,0,1,72,48.49c.65-2.48,2.56-4.64,5.11-4.64,2.74,0,3.24,2,3.24,4.57V59.33h3.5V47.66c0-4.64-1.91-7-6-7a7.33,7.33,0,0,0-6.48,4.14h-.07c-.61-2.74-2.41-4.14-5.47-4.14a7.11,7.11,0,0,0-6.26,4.17h-.08a11.46,11.46,0,0,0,.08-1.33V41.11H56.12ZM34.34,52.77c0,4.83,2.13,7,6.23,7a7.35,7.35,0,0,0,6.7-4.18h.07a12.34,12.34,0,0,0-.07,1.33v2.42h3.38V41.11H47.16v8.53c0,3.6-2.2,6.88-5.9,6.88-2.92,0-3.42-2-3.42-4.54V41.11h-3.5Zm-9.5,1.59c0,4.57,2.92,5.11,4.9,5.11a10.07,10.07,0,0,0,1.15-.07V56.3a5,5,0,0,1-.61,0c-1.08,0-2-.4-2-2.59V33.91H24.84Zm-13.79-17s.54,2.31,1,3.6l2.81,8.07H7.13L10,41c.43-1.29,1-3.6,1-3.6Zm7.27,21.93H22L12.89,33.91H9.14L0,59.33H3.67L6.19,52h9.58Z"/></g></g></svg>
