<?xml version="1.0" encoding="utf-8"?>
<!-- Generator: Adobe Illustrator 15.0.0, SVG Export Plug-In . SVG Version: 6.00 Build 0)  -->
<!DOCTYPE svg PUBLIC "-//W3C//DTD SVG 1.1//EN" "http://www.w3.org/Graphics/SVG/1.1/DTD/svg11.dtd">
<svg version="1.1" id="Layer_1" xmlns="http://www.w3.org/2000/svg" xmlns:xlink="http://www.w3.org/1999/xlink" x="0px" y="0px"
	 width="45px" height="45px" viewBox="0 0 45 45" enable-background="new 0 0 45 45" xml:space="preserve">
<path fill="#EE3124" d="M22.5,43.5c11.579,0,21-9.422,21-21s-9.421-21-21-21s-21,9.421-21,21S10.921,43.5,22.5,43.5 M22.5,0
	C34.906,0,45,10.094,45,22.5S34.906,45,22.5,45C10.094,45,0,34.906,0,22.5S10.094,0,22.5,0"/>
<polygon fill="#EE3124" points="22.002,34.247 23.985,32.264 16.139,24.403 33.253,24.403 33.253,21.591 16.139,21.591 
	23.999,13.744 22.002,11.747 10.752,22.997 "/>
</svg>
