<?xml version="1.0" encoding="utf-8"?>
<!-- Generator: Adobe Illustrator 15.0.0, SVG Export Plug-In . SVG Version: 6.00 Build 0)  -->
<!DOCTYPE svg PUBLIC "-//W3C//DTD SVG 1.1//EN" "http://www.w3.org/Graphics/SVG/1.1/DTD/svg11.dtd">
<svg version="1.1" id="Layer_1" xmlns="http://www.w3.org/2000/svg" xmlns:xlink="http://www.w3.org/1999/xlink" x="0px" y="0px"
	 width="45px" height="45px" viewBox="0 0 45 45" enable-background="new 0 0 45 45" xml:space="preserve">
<path fill="#EE3124" d="M22.5,1.5c-11.579,0-21,9.421-21,21s9.421,21,21,21s21-9.422,21-21S34.079,1.5,22.5,1.5 M22.5,45
	C10.094,45,0,34.906,0,22.5S10.094,0,22.5,0S45,10.094,45,22.5S34.906,45,22.5,45"/>
<polygon fill="#EE3124" points="22.997,10.753 21.015,12.737 28.861,20.598 11.747,20.598 11.747,23.41 28.861,23.41 21,31.256 
	22.997,33.253 34.247,22.003 "/>
</svg>
