<?xml version="1.0" encoding="utf-8"?>
<!-- Generator: Adobe Illustrator 15.0.0, SVG Export Plug-In . SVG Version: 6.00 Build 0)  -->
<!DOCTYPE svg PUBLIC "-//W3C//DTD SVG 1.1//EN" "http://www.w3.org/Graphics/SVG/1.1/DTD/svg11.dtd">
<svg version="1.1" id="Layer_1" xmlns="http://www.w3.org/2000/svg" xmlns:xlink="http://www.w3.org/1999/xlink" x="0px" y="0px"
	 width="48.737px" height="47.496px" viewBox="0 0 48.737 47.496" enable-background="new 0 0 48.737 47.496" xml:space="preserve">
<path fill="none" stroke="#AAAAAD" stroke-width="1.417" stroke-miterlimit="10" d="M23.516,34.302
	c-1.739,1.016-5.046,0.621-7.222-0.864c-1.695-1.157-2.822-2.887-3.172-4.872c-0.345-1.958,0.11-3.932,1.28-5.561
	c2.441-3.397,7.266-4.225,10.755-1.844c3.202,2.185,4.217,6.352,2.361,9.693 M34.59,27.3c0,7.439-6.22,13.493-13.866,13.493
	C13.08,40.793,6.86,34.739,6.86,27.3c0-7.441,6.22-13.494,13.865-13.494C28.371,13.806,34.59,19.858,34.59,27.3z M40.742,27.3
	c0,10.745-8.979,19.487-20.017,19.487c-11.037,0-20.016-8.742-20.016-19.487c0-10.747,8.979-19.489,20.016-19.489
	C31.762,7.811,40.742,16.553,40.742,27.3z M28.012,0.708c-5.35,0-10.378,2.03-14.16,5.714l-7.288,7.102
	C2.789,17.206,0.708,22.097,0.708,27.3c0,10.745,8.979,19.487,20.016,19.487c5.35,0,10.379-2.029,14.161-5.713l7.287-7.104
	c3.777-3.68,5.856-8.572,5.856-13.773C48.029,9.451,39.049,0.708,28.012,0.708z"/>
</svg>
